<svg xmlns="http://www.w3.org/2000/svg" height="190" viewBox="0 0 299 655"><path fill="#FFF" d="M146.79 38.494c3.483-2.211 7.632-3.812 11.372-5.566 11.984-5.619 24.585-11.534 37.427-14.914 3.456 3.545 5.816 8.56 7.247 13.248 1.631 5.345 2.205 10.863 2.976 16.373.96 6.86 1.924 13.767 3.124 20.589.773 4.397 1.937 8.736 2.836 13.11.57 2.772.853 5.598 1.443 8.363.749 3.505 1.749 6.928 2.185 10.495-2.924-4.346-5.332-13.05-7.198-18.193.775 5.924 2.679 11.54 3.464 17.39-2.279-2.78-2.338-6.44-3.788-9.61-.296-.646-.342-.827-1.013-1.067-.225-.414-.472-.824-.672-1.25-.499-1.067-1.1-1.557-2.05-2.24-.845-2.762-1.292-9.533-2.878-11.454l-.362.107-.127 1.444c-.247.544-.519 1.457-.942 1.858-.364 1.653-.21 3.106-.304 4.758l-.417-1.204-.554.427c-.853-1.82.205-4.642-.888-6.511-.299-.512-.561-1.046-.839-1.57.636-15.523.351-31.46-.253-46.99-12.799 7.402-37.075 12.434-46.075 23.106 1.543 4.661 2.751 9.462 3.966 14.217.827 3.24 1.483 7.026 3.008 10.014.837 1.64 2.216 3.088 3.209 4.657.68.935 1.397 1.86 2.024 2.83l3.191 4.654 1.859 2.595c1.029 1.4 2.06 2.981 3.323 4.18 4.439 4.211 11.806 7.295 17.171 10.452 3.464 2.038 6.368 4.92 9.811 6.942 3.038 1.784 6.329 3.217 9.451 4.855 7.018 3.681 15.404 8.621 21.273 13.876 6.742 6.036 10.343 14.579 12.457 23.223.773 3.159 1.266 6.509 2.482 9.528 2.148 5.329 5.574 10.17 7.898 15.485 6.466 14.792 10.95 30.075 14.698 45.74 1.433 5.99 3.056 12.321 3.346 18.487.225 4.793-.741 9.627-1.463 14.35-1.926 12.606-5.621 24.562-9.021 36.814-.591 2.129-1.395 6.73-2.419 8.369l.091.259c.603 1.672 1.955 3.322 2.294 5.021.675 3.382-1.094 15.562-2.555 18.736-1.222 2.654-4.38 2.979-5.234 5.489-.903 2.657-.931 6.26-1.268 9.078-1.341 11.199-2.776 21.654-8.673 31.595-1.118 1.886-3.433 5.3-5.589 6.049-.156.054-.33.065-.49.087-2.288-3.814-1.679-9.146-3.191-13.326-.948-2.622-2.966-4.397-4.103-6.846.442 7.299 6.337 23.12 4.291 29.263-.946.917-3.598 2.143-4.911 2.135-.104-.001-.256-.04-.35-.06-.17 12.531.607 25.813 2.463 38.222 1.088 7.272 2.85 14.475 4.035 21.746.778 4.771.692 10.038 2.107 14.617 1.257 4.07 3.976 7.8 5.613 11.784a140.975 140.975 0 0 1 9.881 38.66c1.197 11.452.924 22.798 1.604 34.245.304 5.131 1.742 10.251 1.891 15.355.096 3.29-.393 6.641-.733 9.911-1.417 13.608-2.986 24.011 3.613 36.714 1.556 2.997 3.179 6.357 5.562 8.779 3.881 3.943 13.689 4.102 13.76 11.097.016 1.517-1.079 2.775-2.108 3.779-1.802 1.757-4.154 3.155-6.217 4.592-5.757 4.009-9.004 6.259-16.028 7.732-2.287.479-4.673.909-7.019.84-2.271-.066-4.656-.612-6.261-2.328-2.334-2.493-1.996-6.065-2.718-9.166-.632-2.714-2.233-5.176-2.705-7.926-.447-2.606.072-5.401-.487-7.95-.394-1.791-1.562-3.482-1.734-5.308-.944-10.062 1.087-17.904-1.357-28.676-1.453-6.406-4.539-12.83-7.344-18.752-.968-2.044-2.17-4.115-2.952-6.224.93-.082 1.749-.609 2.351-1.312.187-.219.356-.452.522-.688-3.176-9.372-8.574-17.517-11.374-27.069-2.633-8.978-4.322-19.116-5.204-28.427-.417-4.411.012-9.136-1.047-13.437-.964-3.917-3.611-7.497-5.164-11.235-2.799-6.735-5.06-13.794-7.263-20.747-3.212-10.133-5.715-20.555-8.09-30.914-.887-3.871-1.406-7.91-2.478-11.721-1.255-4.461-3.169-8.859-4.839-13.178-1.624-4.199-3.091-8.453-4.691-12.66-3.246.586-8.716-1.079-11.45-2.956a3.257 3.257 0 0 1-1.016-1.082c-.208-2.621.054-9.403-1.417-11.35l-.303.45.03-.167c-1.467 4.535-.346 9.62-1.6 14.162-2.167 2.259-9.555 2.791-12.586 2.853-.933.02-1.74.016-2.625-.34-2.086 7.178-4.764 14.166-6.434 21.474a587.783 587.783 0 0 0-6.33 33.321c-.848 5.289-1.325 10.621-2.341 15.888-.554 2.87-1.174 5.751-2.051 8.541-1.21 3.844-2.715 7.375-3.179 11.424-.957 8.346-1.242 17.114-1.356 25.517-.1 7.375.142 14.704-1.188 22-1.088 5.961-4.923 9.92-7.297 15.233-2.56 5.728-4.36 12.453-6.109 18.489-.496 1.708-.201 5.721-.632 8.3a1341.706 1341.706 0 0 0-7.248 48.632c-.509 4.099-1.52 8.121-1.047 12.278.615 5.423 5.85 11.277 3.031 16.635-.49.93-1.1 1.806-2.044 2.317-4.482 2.428-22.118 2.249-27.387.601-3.496-1.093-5.693-4.477-9.384-5.493-5.135-1.414-10.584-.364-15.781-.939-3.276-.363-6.396-1.668-9.46-2.818-1.98-.742-4.403-1.551-5.407-3.581-.38-.768-.377-1.552-.085-2.342 1.397-3.78 6.589-5.197 8.778-8.476 4.123 1.689 14.62-1.314 18.623-2.995 3.375-1.418 9.624-4.083 11.393-7.551 1.068-3.517.937-8.199 1.173-11.878.552-8.591 1.345-17.248 1.504-25.853.088-4.705-.595-9.443-.234-14.132 1.074-.664 1.8-1.998 2.205-3.165-.482-4.637-.575-9.298-.907-13.947-1.185-16.593-2.206-33.251.695-49.749 1.466-8.337 5.646-16.396 6.264-24.86.35-4.801-1.5-9.688-1.359-14.58.308-10.638 3.547-21.066 3.883-31.779.134-4.268-1.587-8.353-1.917-12.576-.666-8.527-.223-17.319-.085-25.876-1.277-.48-4.38-2.893-5.047-4.106.761-6.171 1.416-13.094 3.115-19.064 1.929-6.778 4.857-12.912 5.998-19.957.726-4.478-.438-8.55-.568-12.982-.213-7.262 1.817-15.67 3.923-22.582 1.593-5.23 4.094-10.229 6.723-15.01 2.931-5.33 5.841-9.779 7.062-15.862 1.158-5.768-.268-10.501-1.44-16.083 1.181-1.328 2.278-2.548 3.067-4.159-1.518-13.564-.393-27.078.416-40.645.204-3.428-.16-7.704.896-10.978.633-1.962 2.456-4.029 3.623-5.704 3.677-5.283 5.46-10.851 6.239-17.213.237-1.94.523-4.769-.588-6.455l-.552-.074c-1.66 1.768-1.439 7.03-1.991 9.496-.533 2.386-1.245 4.793-2.226 7.035-2.509 5.735-6.778 9.872-10.23 14.97-4.465 6.592-7.29 14.03-10.097 21.426-.859 2.262-1.977 4.627-2.493 6.986-.376 1.722-.367 3.333-.312 5.077.101 3.21.353 6.456-.249 9.635-1.351 7.14-6.446 16.814-9.475 23.531-2.584 5.731-5.03 12.031-6.881 18.038-1.025 3.325-.396 6.773-.539 10.178-.106 2.528-.514 5.048-.897 7.546-.148.961-.175 2.451-.595 3.307a76.13 76.13 0 0 1-.465 5.681l.005.28c.01.477-.004 1.114.202 1.55 1.157 2.454 7.39 6.791 9.736 9.061 2.771 2.683 5.157 5.902 5.195 9.932.104 10.95-6.92 26.599-14.498 34.24-5.32 5.365-12.215 8.21-19.774 8.212a20.336 20.336 0 0 1-14.603-6.065c-11.525-11.595-5.43-33.247-3.697-47.392.397-3.237.393-6.493.401-9.749.066.021.13.046.196.062 1.29.308 2.711-.063 3.778-.797.73-1.101 1.042-2.48 1.416-3.739 2.121-7.132.302-9.249.853-15.386.427-4.759 3.888-8.402 7.38-11.289.727-4.161.864-8.545 1.34-12.749 1.196-10.574 2.777-21.669 6.095-31.812 1.576-4.819 3.616-9.893 6.074-14.323 1.753-3.16 3.896-6.115 5.355-9.433 1.955-4.444 3.012-11.861 4.922-17.054 1.247-3.389 2.878-6.679 4.293-10.005 1.481-3.483 2.803-7.036 4.252-10.533 1.053-2.54 2.439-5.138 3.144-7.795.679-2.56.19-5.453.177-8.091-.043-9.739.02-18.585 3.517-27.861 7.435-19.718 24.304-21.546 41.322-29.362 4.711-2.164 6.24-4.505 8.024-9.291-2.277 1.653-4.311 3.682-6.727 5.139-1.838 1.108-20.199 9.036-21.953 9.505-.488-.692-.787-1.488-1.27-2.156a2.322 2.322 0 0 0-1.512-.943c-.438-.08-.663-.124-1.026-.38-.217-1.179.158-2.368.423-3.516l-4.371-1.022c.272-1.447 1-3.974.364-5.312-.91-1.91-3.258.361-4.87-.202-.89-1.574-.332-13.069-1.42-17.37-4.332-4.655-5.402-4.4-6.47-11.183-2.305-.215-3.628-.677-5.518-1.961-1.88-3.478-1.127-3.78-.856-7.341-1.58-1.834-3.11-.283-5.086-.665-1.06-.206-1.452-1.176-2.018-1.992 2.373-5.353 6.68-9.415 10.101-14.077 2.562-3.49 4.638-7.225 7.583-10.435a43.94 43.94 0 0 1 7.832-6.733c9.358-6.348 18.526-10.093 30.008-7.84 10.171 1.994 16.485 8.112 22.065 16.409Z"/><path fill="#FFF" d="M223.27 344.205c.197.492.266.987.751 1.232 2.277-3.871-2.588-26.352-2.384-33.006.159-5.201 2.258-9.719 3.815-14.59.769-2.406 1.323-4.9 1.92-7.354l4.562-1.702c.477-9.874 1.287-19.149 3.546-28.798 1.106-4.725 2.926-9.371 3.782-14.129-.969-3.445-2.752-6.781-4.218-10.047-3.87-8.622-8.329-17.18-11.764-25.969.682-6.583 13.511-30.493 11.221-33.744-1.848 2.546-3.026 5.786-4.319 8.645-2.143 4.741-4.333 9.478-6.268 14.308-1.552 3.872-2.83 7.881-4.6 11.66-3.319 7.083-6.933 14.041-10.446 21.029-1.956 3.891-4.687 8.172-5.694 12.389-.816 3.413.459 10.976 1.024 14.59.567 3.622 2.515 6.94 3.548 10.443 1.135 3.845 1.566 7.879 2.694 11.721.968 3.295 2.557 6.378 3.654 9.63 1.567 4.642 2.607 9.729 3.672 14.519 1.09 4.902 1.069 9.964 1.492 14.947.427 5.04 1.494 10.122 2.337 15.111.504 2.979.788 6.232 1.675 9.115Z"/></svg>